<svg width="60" height="24" viewBox="0 0 60 24" fill="none" xmlns="http://www.w3.org/2000/svg">
<path d="M19.4952 19.1482C19.4952 16.4725 17.2352 14.2964 14.4562 14.2964C11.6773 14.2964 9.41731 16.4725 9.41731 19.1482C9.41731 21.824 11.6773 24 14.4562 24C17.2352 24 19.4952 21.824 19.4952 19.1482ZM10.9365 19.1482C10.9365 17.2811 12.5171 15.7593 14.4562 15.7593C16.3954 15.7593 17.9759 17.2811 17.9759 19.1482C17.9759 21.0154 16.3954 22.5372 14.4562 22.5372C12.5171 22.5372 10.9365 21.0199 10.9365 19.1482Z" fill="black"/>
<path d="M14.461 20.9063C15.4694 20.9063 16.2869 20.1192 16.2869 19.1482C16.2869 18.1773 15.4694 17.3901 14.461 17.3901C13.4525 17.3901 12.6351 18.1773 12.6351 19.1482C12.6351 20.1192 13.4525 20.9063 14.461 20.9063Z" fill="black"/>
<path d="M52.2529 19.1482C52.2529 16.4725 49.9929 14.2964 47.214 14.2964C44.435 14.2964 42.175 16.4725 42.175 19.1482C42.175 21.824 44.435 24 47.214 24C49.9929 24 52.2529 21.824 52.2529 19.1482ZM43.6943 19.1482C43.6943 17.2811 45.2748 15.7593 47.214 15.7593C49.1531 15.7593 50.7337 17.2811 50.7337 19.1482C50.7337 21.0154 49.1531 22.5372 47.214 22.5372C45.2748 22.5372 43.6943 21.0199 43.6943 19.1482Z" fill="black"/>
<path d="M47.214 20.9063C48.2224 20.9063 49.0399 20.1192 49.0399 19.1482C49.0399 18.1773 48.2224 17.3901 47.214 17.3901C46.2055 17.3901 45.3881 18.1773 45.3881 19.1482C45.3881 20.1192 46.2055 20.9063 47.214 20.9063Z" fill="black"/>
<path d="M22.3449 8.29529H19.2592V9.23566H22.3449V8.29529Z" fill="black"/>
<path d="M34.041 8.29529H30.9554V9.23566H34.041V8.29529Z" fill="black"/>
<path d="M56.9095 7.60931C56.7868 7.50483 56.6359 7.43668 56.4707 7.42305L41.9909 6.11016L36.1499 0.227144C36.0036 0.0817717 35.8055 0 35.5979 0H19.4148C19.245 0 19.0798 0.0545145 18.943 0.159001L10.2476 6.80068H3.08078C2.80713 6.80068 2.55707 6.94151 2.42025 7.16865L0.0989449 11.0846C-0.000135075 11.2527 -0.0284436 11.448 0.0234554 11.6343L1.6512 17.5128C1.74084 17.8308 2.03808 18.0534 2.3825 18.0534H7.99703C8.33202 18.0534 8.62926 17.8399 8.72362 17.5309C9.46436 15.096 11.8234 13.3924 14.4561 13.3924C17.7541 13.3924 20.4339 15.9727 20.4339 19.1482C20.4339 19.3481 20.4245 19.5525 20.4009 19.757C20.3773 19.9614 20.4481 20.1704 20.5896 20.3203C20.7312 20.4747 20.9388 20.561 21.1511 20.561H40.5141C40.934 20.561 41.2738 20.234 41.2738 19.8296C41.2738 19.7842 41.269 19.7433 41.2596 19.7024C41.2407 19.5162 41.2313 19.3299 41.2313 19.1482C41.2313 15.9727 43.9112 13.3924 47.2091 13.3924C49.856 13.3924 52.2197 15.1051 52.951 17.5582C53.0454 17.8717 53.3426 18.0852 53.6776 18.0852H57.3719C57.7163 18.0852 58.0183 17.8626 58.1032 17.5446L59.9621 10.812C60.0329 10.5486 59.948 10.2669 59.7404 10.0852L56.9095 7.60931ZM3.51956 8.26349H10.5118C10.6816 8.26349 10.8468 8.20897 10.9836 8.10449L19.6838 1.45826H35.2771L41.0897 7.31403C41.2171 7.44123 41.387 7.51846 41.5663 7.53663L56.0791 8.85406L57.6219 10.1988H2.37307L3.51956 8.26349ZM56.801 16.6269H54.2391C53.1539 13.8376 50.3466 11.9296 47.2186 11.9296C43.1044 11.9296 39.7498 15.1414 39.7262 19.0982H21.9532C21.9296 15.1414 18.575 11.9296 14.4608 11.9296C11.3516 11.9296 8.54905 13.8194 7.45445 16.5906H2.96755L1.5993 11.6525H58.1692L56.801 16.6269Z" fill="black"/>
<path d="M28.0443 2.58032V7.10048H38.5279L34.5506 2.58032H28.0443Z" fill="black"/>
<path d="M15.0318 7.10048H26.6714V2.58032H20.2736L15.0318 7.10048Z" fill="black"/>
</svg>
