<svg width="32" height="31" viewBox="0 0 32 31" fill="none" xmlns="http://www.w3.org/2000/svg">
<path d="M13.6256 2.33302C13.3096 3.3481 13.1596 4.34574 13.1534 4.38623L13.1471 4.41804L13.1486 7.59582L11.2847 8.68392L11.2839 6.92298L8.6486 6.92423L8.64957 8.9801L8.68408 9.06105C8.80642 9.35014 8.97265 9.66524 9.18271 9.90803L6.28502 11.5952L6.28424 9.94121L3.7179 9.94243L3.71885 11.9347L3.75335 12.0156C3.86629 12.2816 4.01997 12.5736 4.21122 12.8048L1.65812 14.2923L0.00856124 18.0751L13.155 14.4863L13.1594 23.7363L13.1688 23.7826C13.1751 23.8144 13.3039 24.3839 13.5235 25.0865L9.01231 27.2225L9.01363 30.0071L15.045 28.6597L15.0453 29.3739L16.0512 29.3734L16.0508 28.6736L22.0302 30.0009L22.0289 27.2164L17.5908 25.1192C17.7816 24.3905 17.8816 23.789 17.8847 23.7572L17.891 23.7225L17.8866 14.4899L31.0114 18.0604L29.3645 14.2791L26.81 12.7941C27.001 12.5627 27.1513 12.2706 27.2671 12.0045L27.3016 11.9235L27.3006 9.93124L24.7343 9.93246L24.7351 11.5864L21.8358 9.90203C22.0456 9.65904 22.2115 9.34089 22.3336 9.05458L22.368 8.9736L22.3671 6.91773L19.7318 6.91898L19.7326 8.67991L17.8896 7.60803L17.8881 4.4129L17.8818 4.3782C17.8755 4.33772 17.709 3.34312 17.392 2.32835C16.893 0.744028 16.3036 0.00407726 15.5359 0.00444129C14.7337 0.00771321 14.1105 0.76848 13.6256 2.33302ZM16.4066 25.6027L16.8611 25.8164L17.3155 26.0302L21.0233 27.7836L21.0238 28.8216L16.2604 27.7627L16.0535 27.7166L16.0533 27.3175L16.0529 26.4848L16.0524 25.4351L16.4066 25.6027ZM15.0438 26.251L15.0443 27.1561L15.0445 27.7055L14.9537 27.7257L10.0189 28.8269L10.0184 27.7888L13.8373 25.9798L14.2884 25.7656L14.7396 25.5514L15.0434 25.4067L15.0438 26.251ZM9.65534 8.79746L9.65489 7.84904L10.2753 7.84875L10.2758 8.7856C10.1756 8.97649 10.0472 9.17317 9.94386 9.29466C9.85293 9.17327 9.74003 8.98248 9.65534 8.79746ZM4.72148 11.7549L4.72106 10.8701L5.27569 10.8699L5.27611 11.7431C5.18531 11.9138 5.07259 12.0873 4.97864 12.203C4.89398 12.0874 4.79676 11.9168 4.72148 11.7549ZM2.46373 14.9164L13.1491 8.6946L13.1494 9.27001L2.41052 15.0437L2.46373 14.9164ZM1.71564 16.6401L1.9723 16.0473L13.1498 10.0392L13.1514 13.5177L1.71564 16.6401ZM29.303 16.6271L17.8893 13.5212L17.8876 10.0196L29.0269 15.9939L29.303 16.6271ZM25.7406 10.8602L26.2952 10.8599L26.2956 11.7447C26.2205 11.9067 26.1203 12.0773 26.0389 12.193C25.9448 12.0774 25.8319 11.904 25.741 11.7334L25.7406 10.8602ZM28.5532 14.9041L28.5909 14.9908L17.8873 9.25042L17.887 8.70681L28.5532 14.9041ZM20.7349 7.84668L21.3554 7.84638L21.3558 8.7948C21.2713 8.9799 21.1586 9.17079 21.0678 9.29228C20.9643 9.17089 20.8358 8.97433 20.7354 8.78353L20.7349 7.84668ZM16.4333 2.6353C16.6938 3.47372 16.8446 4.31219 16.876 4.48567L16.8776 7.89477L16.878 8.67259L16.8784 9.45041L16.8797 12.2899L16.8802 13.2181L16.8806 14.1462L16.8851 23.6507C16.8664 23.7663 16.7913 24.177 16.6662 24.6802L16.0488 24.3884L16.0485 23.7812L15.0427 23.7817L15.0429 24.36L14.4352 24.6465C14.2877 24.1608 14.1935 23.7647 14.1652 23.6346L14.1607 14.1042L14.1603 13.176L14.1598 12.2478L14.1585 9.47772L14.1581 8.6999L14.1578 7.92209L14.1561 4.47828C14.1843 4.30767 14.328 3.44014 14.5939 2.58413C15.0132 1.2278 15.4141 0.932676 15.5332 0.93262C15.5363 0.938401 15.9437 1.05387 16.4333 2.6353Z" fill="black"/>
</svg>
