<svg width="24" height="23" viewBox="0 0 24 23" fill="none" xmlns="http://www.w3.org/2000/svg">
<path d="M22.4835 0.332224C22.4201 0.134815 22.2318 0 22.0187 0H1.97842C1.76532 0 1.5765 0.134815 1.51307 0.332224L0.0223631 4.97854C-0.0242214 5.12202 0.00303545 5.27851 0.0942221 5.39984C0.185904 5.52117 0.331605 5.59292 0.486721 5.59292H1.6439V22.5267C1.6439 22.7877 1.86196 23 2.13106 23H21.8645C22.1332 23 22.3517 22.7877 22.3517 22.5267V5.59292H23.5084C23.5099 5.59243 23.5119 5.59243 23.5128 5.59292C23.7824 5.59292 24 5.38058 24 5.11962C24 5.04691 23.9832 4.97806 23.9534 4.91691L22.4835 0.332224ZM13.0199 22.0529H10.9767V17.8833C10.9767 17.3358 11.4351 16.8905 11.998 16.8905C12.562 16.8909 13.0199 17.3358 13.0199 17.8833V22.0529ZM21.3779 22.0529H13.9947V17.8833C13.9947 16.8139 13.0992 15.9439 11.998 15.9434C10.8974 15.9439 10.0023 16.8139 10.0023 17.8833V22.0529H2.61871V5.59292H21.3779V22.0529ZM1.14931 4.64632L2.33672 0.947079H21.6599L22.8473 4.64632H1.14931Z" fill="#3B4167"/>
<path d="M4.50693 9.87963H6.67608C6.94469 9.87963 7.16324 9.66729 7.16324 9.40633V7.12699C7.16324 6.86602 6.94469 6.65369 6.67608 6.65369H4.50693C4.23783 6.65369 4.01978 6.86602 4.01978 7.12699V9.40633C4.01978 9.66729 4.23783 9.87963 4.50693 9.87963ZM4.99409 7.60028H6.18893V8.93303H4.99409V7.60028Z" fill="#3B4167"/>
<path d="M8.77829 9.87963H10.9474C11.217 9.87963 11.4346 9.66729 11.4346 9.40633V7.12699C11.4346 6.86602 11.217 6.65369 10.9474 6.65369H8.77829C8.5087 6.65369 8.29114 6.86602 8.29114 7.12699V9.40633C8.29064 9.66729 8.5087 9.87963 8.77829 9.87963ZM9.26545 7.60028H10.4603V8.93303H9.26545V7.60028Z" fill="#3B4167"/>
<path d="M13.049 9.87963H15.2187C15.4873 9.87963 15.7058 9.66729 15.7058 9.40633V7.12699C15.7058 6.86602 15.4873 6.65369 15.2187 6.65369H13.049C12.7804 6.65369 12.5619 6.86602 12.5619 7.12699V9.40633C12.5619 9.66729 12.7799 9.87963 13.049 9.87963ZM13.5362 7.60028H14.7315V8.93303H13.5362V7.60028Z" fill="#3B4167"/>
<path d="M17.3202 9.87963H19.4898C19.7589 9.87963 19.977 9.66729 19.977 9.40633V7.12699C19.977 6.86602 19.7589 6.65369 19.4898 6.65369H17.3202C17.0516 6.65369 16.833 6.86602 16.833 7.12699V9.40633C16.833 9.66729 17.0516 9.87963 17.3202 9.87963ZM17.8073 7.60028H19.0027V8.93303H17.8073V7.60028Z" fill="#3B4167"/>
<path d="M4.50693 14.8972H6.67608C6.94469 14.8972 7.16324 14.6849 7.16324 14.4239V12.1441C7.16324 11.8831 6.94469 11.6708 6.67608 11.6708H4.50693C4.23783 11.6708 4.01978 11.8831 4.01978 12.1441V14.4239C4.01978 14.6849 4.23783 14.8972 4.50693 14.8972ZM4.99409 12.6174H6.18893V13.9501H4.99409V12.6174Z" fill="#3B4167"/>
<path d="M8.77829 14.8972H10.9474C11.217 14.8972 11.4346 14.6849 11.4346 14.4239V12.1441C11.4346 11.8831 11.217 11.6708 10.9474 11.6708H8.77829C8.5087 11.6708 8.29114 11.8831 8.29114 12.1441V14.4239C8.29064 14.6849 8.5087 14.8972 8.77829 14.8972ZM9.26545 12.6174H10.4603V13.9501H9.26545V12.6174Z" fill="#3B4167"/>
<path d="M13.049 14.8972H15.2187C15.4873 14.8972 15.7058 14.6849 15.7058 14.4239V12.1441C15.7058 11.8831 15.4873 11.6708 15.2187 11.6708H13.049C12.7804 11.6708 12.5619 11.8831 12.5619 12.1441V14.4239C12.5619 14.6849 12.7799 14.8972 13.049 14.8972ZM13.5362 12.6174H14.7315V13.9501H13.5362V12.6174Z" fill="#3B4167"/>
<path d="M17.3202 14.8972H19.4898C19.7589 14.8972 19.977 14.6849 19.977 14.4239V12.1441C19.977 11.8831 19.7589 11.6708 19.4898 11.6708H17.3202C17.0516 11.6708 16.833 11.8831 16.833 12.1441V14.4239C16.833 14.6849 17.0516 14.8972 17.3202 14.8972ZM17.8073 12.6174H19.0027V13.9501H17.8073V12.6174Z" fill="#3B4167"/>
<path d="M4.50693 19.9142H6.67608C6.94469 19.9142 7.16324 19.7023 7.16324 19.4409V17.1615C7.16324 16.9001 6.94469 16.6882 6.67608 16.6882H4.50693C4.23783 16.6882 4.01978 16.9001 4.01978 17.1615V19.4409C4.01978 19.7023 4.23783 19.9142 4.50693 19.9142ZM4.99409 17.6348H6.18893V18.9676H4.99409V17.6348Z" fill="#3B4167"/>
<path d="M17.3202 19.9142H19.4898C19.7589 19.9142 19.977 19.7023 19.977 19.4409V17.1615C19.977 16.9001 19.7589 16.6882 19.4898 16.6882H17.3202C17.0516 16.6882 16.833 16.9001 16.833 17.1615V19.4409C16.833 19.7023 17.0516 19.9142 17.3202 19.9142ZM17.8073 17.6348H19.0027V18.9676H17.8073V17.6348Z" fill="#3B4167"/>
<path d="M20.0379 3.09204H3.95877C3.68967 3.09204 3.47162 3.30438 3.47162 3.56534C3.47162 3.82679 3.68967 4.03864 3.95877 4.03864H20.0379C20.3065 4.03864 20.525 3.82679 20.525 3.56534C20.5255 3.30438 20.307 3.09204 20.0379 3.09204Z" fill="#3B4167"/>
<path d="M6.35447 2.50092H17.6428C17.9124 2.50092 18.1299 2.28907 18.1299 2.02762C18.1299 1.76617 17.9119 1.55432 17.6428 1.55432H6.35447C6.08586 1.55432 5.86731 1.76617 5.86731 2.02762C5.86681 2.28907 6.08537 2.50092 6.35447 2.50092Z" fill="#3B4167"/>
<path d="M11.9987 18.996C11.7281 18.996 11.5085 19.2093 11.5085 19.4722C11.5085 19.7346 11.7281 19.9479 11.9987 19.9479C12.2698 19.9479 12.4888 19.7346 12.4888 19.4722C12.4888 19.2088 12.2693 18.996 11.9987 18.996Z" fill="#3B4167"/>
</svg>
