<svg width="56" height="24" viewBox="0 0 56 24" fill="none" xmlns="http://www.w3.org/2000/svg">
<g clip-path="url(#clip0_20_92)">
<path d="M55.0392 12.6954L54.9764 12.5475L42.2294 0.00493218L0 0L0.00482842 21.2922H1.44853C1.48715 22.7965 2.64115 24.0049 4.06553 24.0049C5.48991 24.0049 6.64873 22.7965 6.68253 21.2922H7.1026C7.1364 22.7965 8.29522 24.0049 9.71961 24.0049C11.144 24.0049 12.3028 22.7965 12.3366 21.2922H12.7567C12.7905 22.7965 13.9493 24.0049 15.3737 24.0049C16.7981 24.0049 17.9569 22.7965 17.9907 21.2922H35.0254C35.2475 22.5894 36.3194 23.5709 37.6037 23.5709C38.8881 23.5709 39.9552 22.5894 40.1821 21.2922H40.6843C40.9064 22.5894 41.9783 23.5709 43.2626 23.5709C44.547 23.5709 45.6141 22.5894 45.841 21.2922H46.3432C46.5653 22.5894 47.6372 23.5709 48.9215 23.5709C50.2059 23.5709 51.273 22.5894 51.4999 21.2922C52.7988 21.1443 54.4211 20.656 55.3289 19.2503C56.3139 17.7213 56.2173 15.5166 55.0392 12.6954ZM1.55475 1.58323L41.6065 1.58816L44.9429 4.873H39.3468L41.6161 11.7682H51.949L53.6727 13.4649C53.7886 13.7509 53.9045 14.0567 54.0059 14.3674H1.55475V1.58323ZM54.0348 18.3724C53.4506 19.275 52.3063 19.6054 51.3406 19.7139C51.0074 19.7534 50.6984 19.7633 50.4425 19.7633C49.9114 19.7633 49.5396 19.7139 49.5396 19.7139L49.4865 19.7041H46.5073H45.6817H40.8533H40.0276H35.1992H17.5754H13.1768H11.9165H7.51785H6.25763H1.86377H1.55475V15.9507H54.3873C54.5177 16.8533 54.4597 17.7164 54.0348 18.3724Z" fill="black"/>
<path d="M7.31023 5.52899H3.83377V11.2207H7.31023V5.52899Z" fill="black"/>
<path d="M12.4139 5.52899H8.93741V11.2207H12.4139V5.52899Z" fill="black"/>
<path d="M17.5175 5.52899H14.041V11.2207H17.5175V5.52899Z" fill="black"/>
<path d="M22.6211 5.52899H19.1447V11.2207H22.6211V5.52899Z" fill="black"/>
<path d="M27.7248 5.52899H24.2483V11.2207H27.7248V5.52899Z" fill="black"/>
</g>
<defs>
<clipPath id="clip0_20_92">
<rect width="56" height="24" fill="white"/>
</clipPath>
</defs>
</svg>
